<?xml version="1.0" encoding="iso-8859-1"?>
<!-- Generator: Adobe Illustrator 19.0.0, SVG Export Plug-In . SVG Version: 6.00 Build 0)  -->
<svg fill="#e7e70d" version="1.1" id="Layer_1" xmlns="http://www.w3.org/2000/svg" xmlns:xlink="http://www.w3.org/1999/xlink" x="0px" y="0px"
	 viewBox="0 0 512 512" style="enable-background:new 0 0 512 512;" xml:space="preserve">
<g>
	<g>
		<path d="M456.002,233.727c-21.394,0-39.838,12.823-48.083,31.181H289.484v-50.085c34.513-19.885,57.798-57.158,57.798-99.77
			C347.282,51.613,295.669,0,232.229,0c-63.441,0-115.054,51.613-115.054,115.053c0,42.612,23.285,79.886,57.799,99.77v50.084
			h-70.777c-8.189-18.493-26.705-31.433-48.198-31.433c-29.055,0-52.693,23.638-52.693,52.693v92.274
			c0,29.055,23.638,52.694,52.693,52.694c21.493,0,40.009-12.941,48.198-31.435h129.244v95.606c0,9.22,7.475,16.696,16.696,16.696
			h101.4c9.22,0,16.696-7.475,16.696-16.696v-95.606h39.456c8.131,18.629,26.722,31.688,48.313,31.688
			c29.055,0,52.693-23.638,52.693-52.693v-92.275C508.694,257.366,485.055,233.727,456.002,233.727z M75.301,378.44
			c0,10.451-8.503,19.302-19.302,19.302c-10.643,0-19.301-8.658-19.301-19.302v-92.273c0-10.643,8.658-19.301,19.301-19.301
			c10.764,0,19.302,8.814,19.302,19.301V378.44z M150.566,115.052c0-45.027,36.634-81.661,81.663-81.661
			c45.028,0,81.662,36.634,81.662,81.662c0,9.885-1.768,19.365-5,28.142c-19.419-17.355-44.321-27.741-70.761-29.094l-48.778-37.62
			c-7.3-5.631-17.784-4.277-23.416,3.025c-5.632,7.302-4.277,17.785,3.025,23.416l23.513,18.134
			c-13.537,4.995-26.07,12.508-36.896,22.169C152.339,134.439,150.566,124.949,150.566,115.052z M173.768,171.991
			c15.253-15.612,36.309-24.653,58.433-24.661c0.006,0,0.011,0,0.017,0s0.012-0.001,0.018-0.001
			c22.219,0.001,43.215,9.026,58.459,24.655c-14.899,15.297-35.608,24.731-58.465,24.731
			C210.178,196.716,189.24,187.872,173.768,171.991z M256.092,227.639v37.269h-47.728v-37.269h0.001
			c8.095,1.708,16.097,2.47,23.864,2.47C239.996,230.108,247.997,229.347,256.092,227.639z M334.84,478.609h-68.009v-78.91h68.009
			V478.609z M403.308,366.308c-4.559,0-289.448,0-294.616,0v-68.009c6.718,0,287.021,0,294.616,0V366.308z M456.002,397.995
			c-10.765,0-19.302-8.809-19.302-19.301c0-96.878-0.073-92.735,0.156-94.613c1.16-9.542,9.296-16.963,19.145-16.963
			c10.643,0,19.301,8.658,19.301,19.301v92.275h0.001C475.303,389.337,466.645,397.995,456.002,397.995z"/>
	</g>
</g>
<g>
</g>
<g>
</g>
<g>
</g>
<g>
</g>
<g>
</g>
<g>
</g>
<g>
</g>
<g>
</g>
<g>
</g>
<g>
</g>
<g>
</g>
<g>
</g>
<g>
</g>
<g>
</g>
<g>
</g>
</svg>
